<?xml version="1.0" encoding="utf-8"?>
<svg viewBox="-314.219 33.484 930.87 197.47" width="930.87" height="197.47" xmlns="http://www.w3.org/2000/svg">
  <g transform="matrix(1, 0, 0, 1, -314.219177, 33.483845)">
    <g>
      <path class="cls-7" d="M508.14,96.48c-.38-10.41-3.17-20.61-8.13-29.77l26.69-15.09c7.65,13.73,11.87,29.15,12.27,44.86h-30.83Z" style="fill: rgb(96, 10, 10);"/>
      <path class="cls-6" d="M497.47,62.4c-5.65-8.82-13.28-16.3-22.27-21.84l15.38-26.09c13.67,8.19,25.2,19.47,33.57,32.84l-26.68,15.09Z" style="fill: rgb(144, 40, 234);"/>
      <path class="cls-4" d="M470.85,38.09c-9.38-4.89-19.83-7.63-30.49-8V0c16.07,.39,31.83,4.51,45.87,12.01l-15.38,26.09Z" style="fill: rgb(242, 44, 39);"/>
      <path class="cls-3" d="M351.56,47.31c8.37-13.37,19.91-24.65,33.57-32.84l15.38,26.09c-9,5.54-16.63,13.02-22.27,21.84l-26.68-15.09Z" style="fill: rgb(255, 244, 44);"/>
      <path class="cls-1" d="M389.49,12.01c14.04-7.49,29.8-11.62,45.87-12.01V30.1c-10.66,.37-21.11,3.11-30.49,8l-15.38-26.09Z" style="fill: rgb(249, 136, 33);"/>
      <path class="cls-5" d="M336.74,96.48c.4-15.72,4.62-31.13,12.27-44.86l26.69,15.09c-4.96,9.16-7.74,19.36-8.13,29.77h-30.83Z" style="fill: rgb(99, 226, 64);"/>
    </g>
    <path class="cls-2" d="M367.87,100.02c0,17.58,9.32,33.37,22.49,45.82,13.17,12.44,29.03,18.66,47.57,18.66s34.37-6.22,47.5-18.66c13.12-12.44,22.44-28.23,22.44-45.82h31c0,13.1-1.79,26.4-7.16,38.36-5.37,11.96-12.6,22.24-21.68,30.86-9.08,8.62-19.9,15.47-32.45,20.58-12.55,5.1-25.77,7.65-39.65,7.65s-27.1-2.55-39.65-7.65c-12.55-5.1-23.39-11.96-32.52-20.58-9.13-8.62-16.38-18.91-21.75-30.86-5.37-11.96-7.13-25.26-7.13-38.36h31Z" style="fill: rgb(255, 255, 255);"/>
    <path class="cls-2" d="M516.84,111.07l43.24,85.9h-34.53l-26.04-50.93" style="fill: rgb(255, 255, 255);"/>
    <path class="cls-2" d="M437.87,89.97c-1.47,0-2.87,.32-4.13,.89-.95,.43-44.11-38.58-44.87-37.89-.83,.75,40.75,41.24,40.21,42.23-.77,1.42-1.21,3.04-1.21,4.77,0,5.52,4.48,10,10,10s10-4.48,10-10-4.48-10-10-10Zm-.13,15.06c-2.73,0-4.94-2.21-4.94-4.94s2.21-4.94,4.94-4.94,4.94,2.21,4.94,4.94-2.21,4.94-4.94,4.94Z" style="fill: rgb(255, 255, 255);"/>
  </g>
  <g transform="matrix(1, 0, 0, 1, -314.219177, 33.483845)">
    <path class="cls-2" d="M76.82,125.94L34.53,48.25l.58,148.72H.9L0,5.1v-.13H52.97v.13l1.66,3.48,9.85,20.18,29.54,61.49,29.81-61.62,11.37-23.66h34.53v.13h18.44V196.65h-34.53V48.39l-42.29,77.55" style="fill: rgb(255, 255, 255);"/>
    <path class="cls-2" d="M298.02,40.07l77.24,156.9h-34.53l-60.04-121.93-60.04,121.93h-34.53L263.5,40.07l17.19-35.1,17.33,35.1Z" style="fill: rgb(255, 255, 255);"/>
    <path class="cls-2" d="M560.19,4.97h34.67V196.97h-34.67V38.2" style="fill: rgb(255, 255, 255);"/>
    <path class="cls-2" d="M704.84,40.07l77.24,156.9h-34.53l-60.04-121.93-60.04,121.93h-34.53l77.38-156.9,17.19-35.1,17.33,35.1Z" style="fill: rgb(255, 255, 255);"/>
    <path class="cls-2" d="M874.29,87.64c15.62,0,28.96,5.34,40.01,16.01,11.05,10.67,16.57,23.56,16.57,38.66s-5.52,27.98-16.57,38.65c-11.05,10.67-24.38,16.01-40.01,16.01h-95.4l17.06-33.36h78.35c6.1,0,11.28-2.08,15.53-6.23,4.25-4.15,6.38-9.18,6.38-15.07s-2.13-10.92-6.38-15.07c-4.25-4.15-9.43-6.23-15.53-6.23h-35.36c-16.55,0-30.69-5.67-42.43-17.02-11.74-11.34-17.61-25.01-17.61-41s5.89-29.65,17.68-41c11.79-11.34,25.95-17.02,42.5-17.02h70.72V38.33h-69.61c-6.75,0-12.71,2.12-17.89,6.36-5.18,4.24-8.09,9.54-8.74,15.88-.65,7.33,1.57,13.67,6.66,19.03,5.08,5.36,11.37,8.04,18.86,8.04h35.22Z" style="fill: rgb(255, 255, 255);"/>
  </g>
</svg>