<?xml version="1.0" encoding="utf-8"?>
<svg viewBox="136.542 78.193 169.33 255.438" width="169.33" height="255.438" xmlns="http://www.w3.org/2000/svg">
  <g transform="matrix(0.032394, 0, 0, -0.032394, 120.886017, 303.340912)" fill="#000000" stroke="none" style="">
    <path d="M 2396 5109 C 1913 5042 1501 4705 1350 4252 C 1268 4005 1260 3755 1326 3509 C 1455 3025 1875 2649 2365 2578 L 2450 2566 L 2452 1321 C 2455 132 2456 74 2473 48 C 2512 -10 2608 -10 2647 48 C 2664 74 2665 132 2668 1321 L 2670 2566 L 2755 2578 C 3245 2649 3665 3025 3794 3509 C 3915 3961 3784 4432 3446 4758 C 3264 4933 3055 5044 2805 5095 C 2709 5115 2491 5123 2396 5109 Z" style="stroke-width: 92.6097px; fill: rgb(77, 77, 77); stroke: rgb(23, 23, 23);"/>
  </g>
  <ellipse style="stroke: rgb(175, 10, 10); fill: rgb(238, 34, 34);" cx="234.999" cy="154.245" rx="21.906" ry="21.906"/>
</svg>