<?xml version="1.0" encoding="utf-8"?>
<svg viewBox="218.611 118.888 71.897 99.61" width="71.897" height="99.61" xmlns="http://www.w3.org/2000/svg">
  <g transform="matrix(1, 0, 0, 1, 218.107346, 118.388016)">
    <path class="cls-2" d="M36.43,48.3c-.6,0-1.21-.04-1.81-.11-6.16-.78-11.19-5.81-11.97-11.97-.51-4.06,.68-7.96,3.35-10.99,2.64-2.99,6.44-4.71,10.42-4.71,.6,0,1.21,.04,1.81,.11,6.16,.78,11.19,5.81,11.97,11.97,.51,4.06-.68,7.96-3.35,11-2.64,2.99-6.44,4.71-10.42,4.71h0Z" style="fill: rgb(71, 131, 168);"/>
    <path class="cls-2" d="M36.43,21.51c.56,0,1.12,.04,1.69,.11,5.71,.72,10.38,5.39,11.1,11.1,.47,3.77-.63,7.39-3.11,10.21-2.45,2.78-5.97,4.37-9.67,4.37-.56,0-1.12-.04-1.69-.11-5.71-.72-10.38-5.39-11.1-11.1-.47-3.77,.63-7.39,3.11-10.21,2.45-2.78,5.97-4.37,9.67-4.37m0-2c-8.86,0-15.91,7.74-14.77,16.83,.84,6.64,6.2,12,12.83,12.83,.65,.08,1.3,.12,1.94,.12,8.86,0,15.91-7.74,14.77-16.83-.84-6.64-6.2-12-12.83-12.83-.65-.08-1.3-.12-1.94-.12h0Z" style="fill: rgb(71, 131, 168);"/>
  </g>
  <g transform="matrix(1, 0, 0, 1, 218.107346, 118.388016)">
    <path class="cls-1" d="M36.51,99.6c-2.23,0-4.33-.99-5.74-2.73C21.02,84.96,4.22,61.23,1.2,36.23,.22,28.08,2.88,19.98,8.7,13.42,15.59,5.64,25.98,1,36.49,1s20.28,4.44,27.09,11.88c6.04,6.61,8.96,14.9,8.2,23.36-2.16,24.23-19.43,48.4-29.53,60.65-1.42,1.72-3.52,2.71-5.74,2.71h0Zm-.01-79.59c-1.93,0-3.86,.38-5.76,1.12-3.46,1.35-6.22,4.12-7.58,7.58-1.87,4.79-1.37,9.86,1.39,13.9,2.7,3.95,7.16,6.31,11.94,6.31,1.93,0,3.86-.38,5.76-1.12,3.46-1.35,6.22-4.12,7.58-7.58,1.87-4.79,1.37-9.86-1.39-13.9-2.7-3.95-7.16-6.31-11.94-6.31Z" style="fill: rgb(177, 210, 239);"/>
    <path class="cls-2" d="M36.49,1.5c10.02,0,20.01,4.38,26.72,11.72,5.95,6.5,8.81,14.66,8.07,22.98-2.15,24.1-19.36,48.17-29.42,60.37-1.33,1.61-3.28,2.53-5.36,2.53s-4.04-.93-5.36-2.54C8.53,68.89,2.99,46.85,1.7,36.17c-.97-8,1.65-15.96,7.37-22.41C15.87,6.08,26.12,1.5,36.49,1.5m0,47.92c1.99,0,3.99-.39,5.94-1.15,3.59-1.4,6.46-4.27,7.86-7.86,1.94-4.95,1.41-10.18-1.44-14.36-2.79-4.09-7.41-6.53-12.36-6.53-1.99,0-3.99,.39-5.94,1.15-3.59,1.4-6.46,4.27-7.86,7.86-1.94,4.95-1.41,10.18,1.44,14.36,2.79,4.09,7.41,6.53,12.36,6.53m0-48.92C16.73,.5-1.66,16.66,.71,36.29c3.06,25.34,20.28,49.42,29.67,60.91,1.59,1.94,3.86,2.91,6.13,2.91s4.54-.97,6.13-2.9c9.64-11.69,27.45-36.3,29.64-60.92C74.04,16.6,56.26,.5,36.49,.5h0Zm0,47.92c-9.5,0-16.79-9.5-12.87-19.53,1.3-3.32,3.97-5.99,7.29-7.29,1.9-.74,3.78-1.08,5.58-1.08,9.5,0,16.79,9.5,12.87,19.53-1.3,3.32-3.97,5.99-7.29,7.29-1.9,.74-3.78,1.08-5.58,1.08h0Z" style="fill: rgb(71, 131, 168);"/>
  </g>
</svg>