<?xml version="1.0" encoding="utf-8"?>
<svg viewBox="127.928 48.012 59.269 82.1" width="59.269" height="82.1" xmlns="http://www.w3.org/2000/svg">
  <g id="Untitled" transform="matrix(1, 0, 0, 1, 127.508102, 47.535545)">
    <g opacity="1" style="" transform="matrix(1.018558, 0, 0, 1.017821, -0.331452, -0.538872)">
      <path d="M18.3937+29.275C18.3937+22.7905+23.6505+17.5337+30.135+17.5337C36.6195+17.5337+41.8763+22.7905+41.8763+29.275C41.8763+35.7595+36.6195+41.0163+30.135+41.0163C23.6505+41.0163+18.3937+35.7595+18.3937+29.275Z" opacity="1" fill="#dd0000"/>
      <path d="M30.135+18.0674C36.3152+18.0674+41.3426+23.0948+41.3426+29.275C41.3426+35.4552+36.3152+40.4826+30.135+40.4826C23.9548+40.4826+18.9274+35.4552+18.9274+29.275C18.9274+23.0948+23.9548+18.0674+30.135+18.0674M30.135+17C23.3571+17+17.86+22.4971+17.86+29.275C17.86+36.0529+23.3571+41.55+30.135+41.55C36.9129+41.55+42.41+36.0529+42.41+29.275C42.41+22.4971+36.9129+17+30.135+17L30.135+17Z" opacity="1" fill="#dd0000"/>
    </g>
    <g opacity="1">
      <path d="M30.18+82.1C28.36+82.1+26.66+81.29+25.51+79.88C17.48+70.07+3.65+50.53+1.17+29.94C0.36+23.25+2.55+16.6+7.33+11.21C12.99+4.82+21.53+1+30.17+1C38.81+1+46.84+4.65+52.44+10.77C57.4+16.2+59.8+23.01+59.18+29.96C57.4+49.91+43.18+69.81+34.86+79.9C33.7+81.3+32+82.11+30.19+82.11L30.19+82.11L30.18+82.1ZM30.17+16.5C29.5+16.5+28.82+16.56+28.14+16.67C23.18+17.48+19.15+21.52+18.34+26.47C17.76+30+18.74+33.57+21.02+36.26C23.31+38.95+26.64+40.5+30.17+40.5C30.84+40.5+31.52+40.44+32.2+40.33C37.16+39.52+41.19+35.48+42+30.53C42.58+27+41.6+23.43+39.32+20.74C37.03+18.05+33.7+16.5+30.17+16.5Z" opacity="1" fill="#f77777"/>
      <path d="M30.17+1.5C38.38+1.5+46.56+5.09+52.07+11.11C56.94+16.43+59.29+23.11+58.68+29.91C56.91+49.72+42.76+69.53+34.47+79.57C33.41+80.86+31.85+81.6+30.18+81.6C28.51+81.6+26.95+80.86+25.89+79.57C17.9+69.79+4.13+50.34+1.66+29.88C0.87+23.33+3.01+16.82+7.69+11.54C13.27+5.25+21.67+1.5+30.17+1.5M30.17+41C30.87+41+31.58+40.94+32.28+40.83C37.45+39.98+41.65+35.78+42.5+30.61C43.1+26.93+42.08+23.21+39.7+20.41C37.32+17.61+33.84+16+30.17+16C29.47+16+28.76+16.06+28.06+16.17C22.89+17.02+18.69+21.22+17.84+26.39C17.24+30.07+18.26+33.79+20.64+36.59C23.02+39.39+26.5+41+30.17+41M30.17+0.5C13.88+0.5-1.28+13.82+0.67+30C3.19+50.88+17.38+70.72+25.12+80.2C26.43+81.8+28.3+82.6+30.18+82.6C32.06+82.6+33.93+81.8+35.24+80.21C43.19+70.57+57.86+50.29+59.67+30C61.12+13.77+46.46+0.5+30.17+0.5L30.17+0.5ZM30.17+40C23.18+40+17.65+33.76+18.83+26.55C19.61+21.78+23.46+17.94+28.22+17.16C28.88+17.05+29.53+17+30.17+17C37.16+17+42.69+23.24+41.51+30.45C40.73+35.22+36.88+39.06+32.12+39.84C31.46+39.95+30.81+40+30.17+40L30.17+40Z" opacity="1" fill="#dd0000"/>
    </g>
  </g>
</svg>