<?xml version="1.0" encoding="utf-8"?>
<svg viewBox="136.542 78.193 169.33 255.438" width="169.33" height="255.438" xmlns="http://www.w3.org/2000/svg">
  <path id="path3047" d="M 219.844 290.243 C 219.643 289.707 218.622 286.098 217.577 282.222 C 214.272 269.965 208.599 256.785 200.922 243.534 C 196.516 235.927 195.719 234.715 182.862 216.025 C 162.087 185.826 158.419 177.346 159.097 161.082 C 159.717 146.178 164.997 135.011 176.528 124.213 C 186.099 115.25 196.748 110.081 209.723 108.098 C 241.878 103.184 273.204 123.147 279.684 152.682 C 281.194 159.568 280.929 171.418 279.119 177.856 C 277.134 184.918 269.099 199.206 257.724 215.898 C 237.192 246.025 229.437 261.073 223.681 281.954 C 221.452 290.039 220.523 292.045 219.844 290.243 Z" style="paint-order: stroke; stroke-width: 15.1226px; stroke: rgb(215, 103, 30); fill: rgb(255, 161, 67);"/>
  <path id="path3049" style="stroke-width: 0; fill: rgb(215, 104, 30);" d="M 245.508 169.452 C 245.508 183.346 234.258 194.61 220.38 194.61 C 206.504 194.61 195.254 183.346 195.254 169.452 C 195.254 155.557 206.504 144.294 220.38 144.294 C 234.258 144.294 245.508 155.557 245.508 169.452 Z"/>
</svg>